<svg width="35" height="35" viewBox="0 0 35 35" fill="none" xmlns="http://www.w3.org/2000/svg">
<g clip-path="url(#clip0_230_89)">
<mask id="mask0_230_89" style="mask-type:luminance" maskUnits="userSpaceOnUse" x="0" y="0" width="35" height="35">
<path d="M34.8267 0H0.173218V35H34.8267V0Z" fill="white"/>
</mask>
<g mask="url(#mask0_230_89)">
<path d="M0.173218 16.8C0.173218 8.88041 0.173218 4.92061 2.60916 2.4603C5.04511 0 8.9657 0 16.8069 0H18.193C26.0342 0 29.9548 0 32.3908 2.4603C34.8267 4.92061 34.8267 8.88041 34.8267 16.8V18.2C34.8267 26.1196 34.8267 30.0794 32.3908 32.5397C29.9548 35 26.0342 35 18.193 35H16.8069C8.9657 35 5.04511 35 2.60916 32.5397C0.173218 30.0794 0.173218 26.1196 0.173218 18.2V16.8Z" fill="#4680C2"/>
<path d="M18.6119 25.2147C10.7138 25.2147 6.20884 19.7459 6.02112 10.6459H9.9774C10.1074 17.3251 13.024 20.1542 15.3342 20.7376V10.6459H19.0596V16.4063C21.3409 16.1584 23.7375 13.5334 24.5461 10.6459H28.2714C27.6505 14.2043 25.0515 16.8292 23.2033 17.9084C25.0515 18.7834 28.0117 21.073 29.1379 25.2147H25.0371C24.1563 22.4438 21.9618 20.3001 19.0596 20.0084V25.2147H18.6119Z" fill="white"/>
</g>
</g>
<defs>
<clipPath id="clip0_230_89">
<rect width="35" height="35" fill="white"/>
</clipPath>
</defs>
</svg>
