<svg width="35" height="35" viewBox="0 0 35 35" fill="none" xmlns="http://www.w3.org/2000/svg">
<g clip-path="url(#clip0_230_96)">
<path d="M8.33333 0C3.74056 0 0 3.74056 0 8.33333V26.6667C0 31.2594 3.74056 35 8.33333 35H26.6667C31.2594 35 35 31.2594 35 26.6667V8.33333C35 3.74056 31.2594 0 26.6667 0H8.33333ZM11.6715 6.70247C12.1949 6.72497 12.6755 7.01983 12.9655 7.47233C13.2955 7.98733 13.8076 8.7866 14.4743 9.8291C15.0826 10.7799 15.125 12.008 14.5817 12.9997L13.361 14.7363C13.031 15.2063 12.9652 15.8079 13.1868 16.3379C13.5318 17.1629 14.2007 18.4308 15.389 19.6191C16.5773 20.8075 17.8452 21.4763 18.6702 21.8213C19.2002 22.043 19.8018 21.9771 20.2718 21.6471L22.0085 20.4264C23.0001 19.8831 24.2282 19.9264 25.179 20.5339C26.2215 21.2005 27.0208 21.7126 27.5358 22.0426C27.9883 22.3326 28.2832 22.8133 28.3057 23.3366C28.434 26.3066 26.133 27.5098 25.4639 27.5098C25.0005 27.5098 19.4303 28.1429 13.1478 21.8604C6.86529 15.5779 7.49837 10.0076 7.49837 9.54427C7.49837 8.8751 8.70155 6.57414 11.6715 6.70247Z" fill="#556BF5"/>
</g>
<defs>
<clipPath id="clip0_230_96">
<rect width="35" height="35" fill="white"/>
</clipPath>
</defs>
</svg>
